<svg width="30" height="30" fill="none" xmlns="http://www.w3.org/2000/svg"><path d="M15.806 17.079h3.784c1.076 0 1.758-.592 1.758-1.543 0-.898-.682-1.544-1.758-1.544h-3.784c-.125 0-.233.108-.233.215v2.656c.018.126.107.216.233.216zm0 6.119h3.91c1.201 0 1.919-.61 1.919-1.686 0-.934-.682-1.687-1.92-1.687h-3.909c-.125 0-.233.107-.233.215v2.925c.018.144.107.233.233.233z" fill="#313440"/><path d="M29.652.066L18.46 11.228h1.83c2.851 0 4.537 1.795 4.537 3.751 0 1.544-1.04 2.674-2.152 3.177-.18.071-.18.323.018.394 1.291.503 2.206 1.849 2.206 3.428 0 2.225-1.489 4.002-4.376 4.002h-7.927c-.126 0-.233-.108-.233-.215v-8.453L.077 29.552c-.161.16-.054.448.18.448h29.538a.2.2 0 00.198-.197V.227c.053-.197-.198-.305-.341-.161z" fill="#313440"/></svg>