<svg xmlns="http://www.w3.org/2000/svg" width="21" height="24" fill="none"><path fill="url(#a)" d="M12.175 7.927c.2-.74 1.25-.74 1.449 0l.798 2.965a4 4 0 0 0 2.823 2.823l2.965.798c.74.2.74 1.25 0 1.448l-2.965.799a4 4 0 0 0-2.823 2.822l-.798 2.965c-.2.74-1.25.74-1.449 0l-.798-2.965a4 4 0 0 0-2.822-2.822l-2.966-.799c-.74-.199-.74-1.249 0-1.448l2.966-.798a4 4 0 0 0 2.822-2.823l.798-2.965Z"/><path fill="url(#b)" d="M3.425 4.681a.5.5 0 0 1 .95 0l.683 2.079a.5.5 0 0 0 .319.319l2.078.683a.5.5 0 0 1 0 .95l-2.078.684a.5.5 0 0 0-.319.319l-.683 2.078a.5.5 0 0 1-.95 0L2.74 9.715a.5.5 0 0 0-.319-.32L.344 8.713a.5.5 0 0 1 0-.95l2.078-.683a.5.5 0 0 0 .319-.32l.684-2.078Z"/><path fill="url(#c)" d="M9.615 1.104a.3.3 0 0 1 .57 0l.41 1.247a.3.3 0 0 0 .191.191l1.247.41a.3.3 0 0 1 0 .57l-1.247.41a.3.3 0 0 0-.191.192l-.41 1.247a.3.3 0 0 1-.57 0l-.41-1.247a.3.3 0 0 0-.192-.192l-1.247-.41a.3.3 0 0 1 0-.57l1.247-.41a.3.3 0 0 0 .191-.191l.41-1.247Z"/><path stroke="#fff" stroke-opacity=".2" d="m13.141 8.057.798 2.965a4.5 4.5 0 0 0 3.176 3.175l2.965.799c.247.066.247.416 0 .483l-2.965.798a4.5 4.5 0 0 0-3.176 3.175l-.798 2.965c-.066.247-.416.247-.483 0l-.798-2.965a4.5 4.5 0 0 0-3.175-3.175l-2.966-.798c-.246-.067-.246-.417 0-.483l2.966-.799a4.5 4.5 0 0 0 3.175-3.175l.798-2.965c.067-.247.417-.247.483 0ZM3.9 4.837l.683 2.08a1 1 0 0 0 .638.637l2.078.683-2.078.684a1 1 0 0 0-.638.637L3.9 11.637l-.684-2.079a1 1 0 0 0-.638-.637L.5 8.237l2.078-.683a1 1 0 0 0 .638-.638L3.9 4.838Zm5.78-2.33.22-.67.22.67a.8.8 0 0 0 .51.51l.67.22-.67.22a.8.8 0 0 0-.51.51l-.22.67-.22-.67a.8.8 0 0 0-.51-.51l-.67-.22.67-.22a.8.8 0 0 0 .51-.51Z" style="mix-blend-mode:overlay"/><defs><radialGradient id="a" cx="0" cy="0" r="1" gradientTransform="rotate(80.817 18.828 -9.842) scale(83.1002 51.8229)" gradientUnits="userSpaceOnUse"><stop offset=".215" stop-color="#C920E4"/><stop offset=".681" stop-color="#207BE4"/><stop offset="1" stop-color="#490B66"/></radialGradient><radialGradient id="b" cx="0" cy="0" r="1" gradientTransform="rotate(80.817 18.828 -9.842) scale(83.1002 51.8229)" gradientUnits="userSpaceOnUse"><stop offset=".215" stop-color="#C920E4"/><stop offset=".681" stop-color="#207BE4"/><stop offset="1" stop-color="#490B66"/></radialGradient><radialGradient id="c" cx="0" cy="0" r="1" gradientTransform="rotate(80.817 18.828 -9.842) scale(83.1002 51.8229)" gradientUnits="userSpaceOnUse"><stop offset=".215" stop-color="#C920E4"/><stop offset=".681" stop-color="#207BE4"/><stop offset="1" stop-color="#490B66"/></radialGradient></defs></svg>